<svg width="249" height="90" viewBox="0 0 249 90" fill="none" xmlns="http://www.w3.org/2000/svg">
<rect width="249" height="90" rx="4" fill="#090909" fill-opacity="0.7"/>
<path d="M54 63C63.9411 63 72 54.9411 72 45C72 35.0589 63.9411 27 54 27C44.0589 27 36 35.0589 36 45C36 54.9411 44.0589 63 54 63Z" stroke="#9740EF" stroke-width="3" stroke-linecap="round" stroke-linejoin="round"/>
<path d="M70.1625 52.95L59.9813 46.6875C59.806 46.5748 59.6071 46.5042 59.4 46.4813L55.1063 45.9C54.7859 45.854 54.4594 45.9156 54.1777 46.075C53.8961 46.2345 53.6754 46.4829 53.55 46.7813L50.9813 52.5375C50.8605 52.8053 50.821 53.1026 50.8677 53.3925C50.9143 53.6825 51.0451 53.9524 51.2438 54.1688L54.7688 57.975C54.9281 58.1501 55.0449 58.3597 55.1099 58.5874C55.175 58.815 55.1866 59.0546 55.1438 59.2875L54.4125 63" stroke="#9740EF" stroke-width="3" stroke-linecap="round" stroke-linejoin="round"/>
<path d="M42.1873 31.425L40.4998 35.4C40.3528 35.7529 40.3461 36.1486 40.4811 36.5062L42.6373 42.2437C42.7216 42.4829 42.8658 42.6964 43.0563 42.8638C43.2467 43.0312 43.4769 43.147 43.7248 43.2L47.7373 44.0625C47.96 44.1075 48.1692 44.2038 48.3482 44.3438C48.5272 44.4837 48.6711 44.6635 48.7686 44.8687L49.4811 46.35C49.6077 46.6004 49.8004 46.8115 50.0384 46.9602C50.2763 47.1089 50.5505 47.1897 50.8311 47.1937H53.3623" stroke="#9740EF" stroke-width="3" stroke-linecap="round" stroke-linejoin="round"/>
<path d="M58.5938 27.5812L60.3375 30.7312C60.4985 31.0274 60.5564 31.3687 60.5021 31.7013C60.4478 32.034 60.2844 32.3392 60.0375 32.5687L54.9938 37.125C54.9094 37.2056 54.8148 37.2749 54.7125 37.3312L52.4063 38.6062C52.1865 38.7229 51.9426 38.7871 51.6938 38.7937H47.6813C47.3857 38.7952 47.097 38.883 46.8505 39.0462C46.6041 39.2094 46.4106 39.4409 46.2938 39.7125L44.7375 43.4062" stroke="#9740EF" stroke-width="3" stroke-linecap="round" stroke-linejoin="round"/>
<path d="M94.1181 55.5V35.34H112.682V39.064H97.8421V43.544H109.77V47.296H97.8421V55.5H94.1181ZM118.077 55.5C117.367 55.5 116.714 55.3227 116.117 54.968C115.538 54.6133 115.071 54.1467 114.717 53.568C114.381 52.9893 114.213 52.3453 114.213 51.636V39.26H117.881V51.496C117.881 51.5893 117.909 51.6733 117.965 51.748C118.039 51.804 118.123 51.832 118.217 51.832H126.701C126.794 51.832 126.869 51.804 126.925 51.748C126.999 51.6733 127.037 51.5893 127.037 51.496V39.26H130.705V51.636C130.705 52.3453 130.527 52.9893 130.173 53.568C129.837 54.1467 129.379 54.6133 128.801 54.968C128.222 55.3227 127.569 55.5 126.841 55.5H118.077ZM133.737 55.5V39.26H146.365C147.074 39.26 147.718 39.4373 148.297 39.792C148.894 40.1467 149.361 40.6133 149.697 41.192C150.051 41.7707 150.229 42.4147 150.229 43.124V55.5H146.561V43.264C146.561 43.1707 146.523 43.096 146.449 43.04C146.393 42.9653 146.318 42.928 146.225 42.928H137.741C137.647 42.928 137.563 42.9653 137.489 43.04C137.433 43.096 137.405 43.1707 137.405 43.264V55.5H133.737ZM157.181 55.5C156.471 55.5 155.818 55.3227 155.221 54.968C154.642 54.6133 154.175 54.1467 153.821 53.568C153.466 52.9707 153.289 52.3173 153.289 51.608V39.232C153.289 38.5227 153.466 37.8787 153.821 37.3C154.175 36.7027 154.642 36.2267 155.221 35.872C155.818 35.5173 156.471 35.34 157.181 35.34H169.529C170.238 35.34 170.891 35.5173 171.489 35.872C172.086 36.2267 172.562 36.7027 172.917 37.3C173.271 37.8787 173.449 38.5227 173.449 39.232V40.8H169.725V39.4C169.725 39.3067 169.687 39.232 169.613 39.176C169.538 39.1013 169.454 39.064 169.361 39.064H157.321C157.227 39.064 157.143 39.1013 157.069 39.176C157.013 39.232 156.985 39.3067 156.985 39.4V51.44C156.985 51.5333 157.013 51.6173 157.069 51.692C157.143 51.748 157.227 51.776 157.321 51.776H169.361C169.454 51.776 169.538 51.748 169.613 51.692C169.687 51.6173 169.725 51.5333 169.725 51.44V47.8H165.161V44.076H173.449V51.608C173.449 52.3173 173.271 52.9707 172.917 53.568C172.562 54.1467 172.086 54.6133 171.489 54.968C170.891 55.3227 170.238 55.5 169.529 55.5H157.181ZM180.255 55.5C179.546 55.5 178.902 55.3227 178.323 54.968C177.744 54.6133 177.278 54.1467 176.923 53.568C176.568 52.9893 176.391 52.3453 176.391 51.636V43.124C176.391 42.4147 176.568 41.7707 176.923 41.192C177.278 40.6133 177.744 40.1467 178.323 39.792C178.902 39.4373 179.546 39.26 180.255 39.26H189.019C189.728 39.26 190.372 39.4373 190.951 39.792C191.548 40.1467 192.015 40.6133 192.351 41.192C192.706 41.7707 192.883 42.4147 192.883 43.124V49.228H180.059V51.496C180.059 51.5893 180.087 51.6733 180.143 51.748C180.218 51.804 180.302 51.832 180.395 51.832H192.883V55.5H180.255ZM180.059 45.924H189.215V43.264C189.215 43.1707 189.178 43.096 189.103 43.04C189.047 42.9653 188.972 42.928 188.879 42.928H180.395C180.302 42.928 180.218 42.9653 180.143 43.04C180.087 43.096 180.059 43.1707 180.059 43.264V45.924ZM199.259 55.5C198.549 55.5 197.905 55.3227 197.327 54.968C196.748 54.6133 196.281 54.1467 195.927 53.568C195.572 52.9893 195.395 52.3453 195.395 51.636V43.124C195.395 42.4147 195.572 41.7707 195.927 41.192C196.281 40.6133 196.748 40.1467 197.327 39.792C197.905 39.4373 198.549 39.26 199.259 39.26H208.023C208.732 39.26 209.376 39.4373 209.955 39.792C210.552 40.1467 211.019 40.6133 211.355 41.192C211.709 41.7707 211.887 42.4147 211.887 43.124V51.636C211.887 52.3453 211.709 52.9893 211.355 53.568C211.019 54.1467 210.561 54.6133 209.983 54.968C209.404 55.3227 208.751 55.5 208.023 55.5H199.259ZM199.399 51.832H207.883C207.976 51.832 208.051 51.804 208.107 51.748C208.181 51.6733 208.219 51.5893 208.219 51.496V43.264C208.219 43.1707 208.181 43.096 208.107 43.04C208.051 42.9653 207.976 42.928 207.883 42.928H199.399C199.305 42.928 199.221 42.9653 199.147 43.04C199.091 43.096 199.063 43.1707 199.063 43.264V51.496C199.063 51.5893 199.091 51.6733 199.147 51.748C199.221 51.804 199.305 51.832 199.399 51.832ZM214.978 49.844V35.34H218.646V49.844H214.978ZM214.978 55.5V51.832H218.646V55.5H214.978Z" fill="#9740EF"/>
</svg>
